<svg xmlns="http://www.w3.org/2000/svg" version="1.1" preserveAspectRatio="xMinYMin" width="673.3" height="673.3" viewBox="0 0 673.3 673.3"><circle xmlns="http://www.w3.org/2000/svg" cx="336.65" cy="336.65" r="336.65" fill="#edc134"></circle><path xmlns="http://www.w3.org/2000/svg" fill="#fff" d="M517.51 221.6a66.14 66.14 0 0 0-66.14-65.93h-230A66.12 66.12 0 0 0 155.23 222l.56 175.51c.11 36.45 29.69 65.29 66.14 65.29h65.32l30.89 44.93a22.6 22.6 0 0 0 18.28 9.88c7.28 0 14.12-4 18.32-10L386 462.82h65.94c17.57 0 34.43-6.36 46.84-18.8a65.43 65.43 0 0 0 19.3-46.59zm-185.83 192c-13.76 0-23.11-10.13-23.11-23.63 0-13.76 9.61-23.63 23.11-23.63 14 0 23.12 9.87 23.37 23.63 0 13.54-9.35 23.67-23.37 23.67zm33.46-110.86c-10.48 11.62-12.74 22.68-12.74 35.43a17.17 17.17 0 0 1-17.16 17.17h-7.07A17.16 17.16 0 0 1 311 338.48v-1.83c-.85-14.46 4-29.54 16.72-44.84 9.07-10.78 16.44-20 16.44-29.67 0-9.92-6.52-16.53-20.69-17.1a52.38 52.38 0 0 0-13.66 2 16.16 16.16 0 0 1-9.44-30.9A104.74 104.74 0 0 1 333.1 211c37.41 0 55.29 20.69 55.29 44.22-.01 21.48-12.47 35.65-23.25 47.56z"></path></svg>
